<?xml version="1.0" encoding="UTF-8" standalone="no"?>
<svg
   id="svg"
   version="1.1"
   width="100"
   height="100"
   viewBox="0 0 99.999999 100"
   sodipodi:docname="discord.svg"
   inkscape:version="1.3 (0e150ed6c4, 2023-07-21)"
   xmlns:inkscape="http://www.inkscape.org/namespaces/inkscape"
   xmlns:sodipodi="http://sodipodi.sourceforge.net/DTD/sodipodi-0.dtd"
   xmlns="http://www.w3.org/2000/svg"
   xmlns:svg="http://www.w3.org/2000/svg"
   xmlns:rdf="http://www.w3.org/1999/02/22-rdf-syntax-ns#"
   xmlns:cc="http://creativecommons.org/ns#"
   xmlns:dc="http://purl.org/dc/elements/1.1/">
  <metadata
     id="metadata10">
    <rdf:RDF>
      <cc:Work
         rdf:about="">
        <dc:format>image/svg+xml</dc:format>
        <dc:type
           rdf:resource="http://purl.org/dc/dcmitype/StillImage" />
      </cc:Work>
    </rdf:RDF>
  </metadata>
  <defs
     id="defs8" />
  <sodipodi:namedview
     pagecolor="#ffffff"
     bordercolor="#666666"
     borderopacity="1"
     objecttolerance="10"
     gridtolerance="10"
     guidetolerance="10"
     inkscape:pageopacity="0"
     inkscape:pageshadow="2"
     inkscape:window-width="1920"
     inkscape:window-height="1166"
     id="namedview6"
     showgrid="false"
     inkscape:zoom="8.9000001"
     inkscape:cx="118.76404"
     inkscape:cy="78.595505"
     inkscape:window-x="-11"
     inkscape:window-y="-11"
     inkscape:window-maximized="1"
     inkscape:current-layer="svg"
     inkscape:document-rotation="0"
     inkscape:showpageshadow="2"
     inkscape:pagecheckerboard="0"
     inkscape:deskcolor="#d1d1d1" />
  <g
     id="svgg"
     transform="scale(0.29138621)">
    <path
       id="path1"
       d="m 160.99828,0.0742762 c -0.586,0.056 -2.626,0.231 -4.533,0.389 -35.937,2.992 -70.430999,17.7759998 -98.340999,42.1499998 -2.402,2.097 -12.938,12.561 -14.695,14.594 -25.53,29.534 -38.894,60.457004 -42.88700004,99.240004 -1.357,13.179 -0.084,34.981 2.89000004,49.467 20.647,100.587 124.931999,160.837 222.257999,128.408 110.099,-36.685 152.845,-169.878 84.687,-263.875004 -28.979,-39.964 -72.47,-64.6469998 -123.379,-70.0209998 -2.653,-0.28 -23.73,-0.565 -26,-0.352 m -18.97,89.5729998 c 0.571,1.027 1.864,3.607 2.872,5.734 2.149,4.533 1.531,4.145 5.763,3.623 9.988,-1.233 22.595,-1.692 30.736,-1.12 4.42,0.311 8.836,0.72 11.999,1.112 1.687,0.209 3.27,0.381 3.519,0.383 0.299,10e-4 0.698,-0.561 1.183,-1.665 1.863,-4.247 4.985,-10.067 5.4,-10.065 5.944,0.027 31.265,7.675 43.084,13.014004 l 2.365,1.068 1.974,3.025 c 19.185,29.391 29.633,60.334 31.469,93.199 0.543,9.709 -0.04,29.458 -0.891,30.2 -3.941,3.438 -18.136,12.108 -27.436,16.758 -10.406,5.203 -27.546,11.821 -28.52,11.012 -1.119,-0.928 -7.518,-11.024 -10.506,-16.574 l -1.38,-2.562 3.137,-1.273 c 5.893,-2.393 15.402,-7.216 15.402,-7.813 0,-0.22 -3.005,-2.697 -4.056,-3.343 -0.178,-0.109 -0.898,0.092 -1.6,0.448 -2.135,1.08 -9.831,4.037 -14.21,5.46 -30.608,9.944 -63.363,8.227 -93.515,-4.902 l -2.746,-1.196 -1.403,1.139 c -0.772,0.626 -1.763,1.4 -2.203,1.72 -0.526,0.384 -0.709,0.671 -0.533,0.84 1.004,0.972 10.088,5.482 15.361,7.627 l 3.095,1.259 -1.558,2.936 c -2.536,4.782 -7.86,13.267 -9.91,15.794 l -0.626,0.772 -3.448,-1.138 c -17.608999,-5.813 -33.507999,-13.825 -49.110999,-24.748 -3.553,-2.488 -3.377,-2.226 -3.65,-5.407 -3.624,-42.129 6.984,-83.316 30.856,-119.806 l 2.239,-3.423 2.509004,-1.135 c 11.162995,-5.050004 23.822995,-9.089004 37.308995,-11.904004 6.137,-1.281 5.759,-1.332 7.03,0.951 m -10.895,68.815004 c -15.572,3.917 -20.915,25.613 -9.347,37.955 12.244,13.064 32.704,3.671 33.331,-15.303 0.478,-14.496 -11.485,-25.795 -23.984,-22.652 m 73.332,0.111 c -15.748,4.191 -20.836,26.03 -8.891,38.162 12.459,12.655 32.256,3.248 32.955,-15.659 0.543,-14.681 -11.419,-25.867 -24.064,-22.503"
       stroke="none"
       fill="#5c64f4"
       fill-rule="evenodd"
       style="fill:#000000;fill-opacity:1" />
  </g>
</svg>
