<?xml version="1.0" encoding="UTF-8" standalone="no"?>
<svg
   version="1.1"
   width="100"
   height="100"
   viewBox="0 0 100 100"
   xml:space="preserve"
   id="svg1"
   sodipodi:docname="mail-5928.svg"
   inkscape:version="1.3 (0e150ed6c4, 2023-07-21)"
   xmlns:inkscape="http://www.inkscape.org/namespaces/inkscape"
   xmlns:sodipodi="http://sodipodi.sourceforge.net/DTD/sodipodi-0.dtd"
   xmlns="http://www.w3.org/2000/svg"
   xmlns:svg="http://www.w3.org/2000/svg"><sodipodi:namedview
   id="namedview1"
   pagecolor="#ffffff"
   bordercolor="#000000"
   borderopacity="0.25"
   inkscape:showpageshadow="2"
   inkscape:pageopacity="0.0"
   inkscape:pagecheckerboard="0"
   inkscape:deskcolor="#d1d1d1"
   inkscape:zoom="2.4555388"
   inkscape:cx="-79.005064"
   inkscape:cy="84.095596"
   inkscape:window-width="1920"
   inkscape:window-height="1166"
   inkscape:window-x="-11"
   inkscape:window-y="-11"
   inkscape:window-maximized="1"
   inkscape:current-layer="g1" />&#10;&#10;<defs
   id="defs1">&#10;</defs>&#10;<g
   style="opacity:1;fill:none;fill-rule:nonzero;stroke:none;stroke-width:0;stroke-linecap:butt;stroke-linejoin:miter;stroke-miterlimit:10;stroke-dasharray:none"
   transform="matrix(2.81,0,0,2.81,1.4065934,1.4065934)"
   id="g1">&#10;	<path
   id="circle1"
   style="opacity:1;fill:#000000;fill-opacity:1;fill-rule:nonzero;stroke:none;stroke-width:0.395412;stroke-linecap:butt;stroke-linejoin:miter;stroke-miterlimit:10;stroke-dasharray:none"
   d="M 17.293165,-0.50056705 A 17.793567,17.793567 0 0 0 -0.50056705,17.293165 17.793567,17.793567 0 0 0 17.293165,35.086621 17.793567,17.793567 0 0 0 35.086621,17.293165 17.793567,17.793567 0 0 0 17.293165,-0.50056705 Z M 9.5559712,9.9759212 H 25.030083 c 1.242386,0 2.249416,1.0075458 2.249811,2.2495348 v 10.134867 c 0,1.242385 -1.007151,2.249536 -2.249536,2.249536 H 9.5559712 c -1.2423853,0 -2.249536,-1.007151 -2.249536,-2.249536 V 12.225456 c 0,-1.242385 1.0071507,-2.2495348 2.249536,-2.2495348 z m 0.9393898,2.6692108 c -0.15164,-0.007 -0.306176,0.04386 -0.42737,0.154183 -0.2419918,0.22064 -0.2593918,0.595709 -0.03875,0.837701 l 3.781474,4.15003 -3.606128,3.606402 c -0.2317118,0.231712 -0.2317118,0.60709 0,0.838801 0.115855,0.115856 0.267562,0.173422 0.4194,0.173422 0.151838,0 0.304215,-0.05757 0.419675,-0.173422 l 3.567376,-3.567926 0.528511,0.58018 c 0.550809,0.604189 1.335905,0.950384 2.153618,0.950384 0.817712,0 1.602138,-0.346195 2.153343,-0.950384 l 0.53648,-0.588974 3.724308,3.584416 c 0.115065,0.110319 0.263546,0.165726 0.41143,0.165726 0.155397,0 0.310724,-0.06095 0.42737,-0.181942 0.226967,-0.236061 0.219571,-0.611284 -0.01649,-0.838251 l -3.747396,-3.606403 3.774603,-4.141509 c 0.22064,-0.242388 0.20324,-0.617336 -0.03875,-0.837976 -0.241992,-0.220245 -0.61694,-0.203241 -0.837976,0.03875 l -4.152503,4.555963 -0.957805,1.0507 c -0.33096,0.363779 -0.784722,0.563689 -1.276614,0.563689 -0.491893,0 -0.945535,-0.19991 -1.276891,-0.563689 L 10.905967,12.838067 C 10.795845,12.717071 10.647002,12.65215 10.495361,12.645132 Z" />&#10;	&#10;</g>&#10;</svg>
