<?xml version="1.0" encoding="UTF-8" standalone="no"?>
<svg
   width="100"
   height="100"
   viewBox="0 0 100 100"
   fill="none"
   version="1.1"
   id="svg4"
   sodipodi:docname="github.svg"
   inkscape:version="1.3 (0e150ed6c4, 2023-07-21)"
   xmlns:inkscape="http://www.inkscape.org/namespaces/inkscape"
   xmlns:sodipodi="http://sodipodi.sourceforge.net/DTD/sodipodi-0.dtd"
   xmlns="http://www.w3.org/2000/svg"
   xmlns:svg="http://www.w3.org/2000/svg"
   xmlns:rdf="http://www.w3.org/1999/02/22-rdf-syntax-ns#"
   xmlns:cc="http://creativecommons.org/ns#"
   xmlns:dc="http://purl.org/dc/elements/1.1/">
  <metadata
     id="metadata10">
    <rdf:RDF>
      <cc:Work
         rdf:about="">
        <dc:format>image/svg+xml</dc:format>
        <dc:type
           rdf:resource="http://purl.org/dc/dcmitype/StillImage" />
      </cc:Work>
    </rdf:RDF>
  </metadata>
  <defs
     id="defs8" />
  <sodipodi:namedview
     pagecolor="#ffffff"
     bordercolor="#666666"
     borderopacity="1"
     objecttolerance="10"
     gridtolerance="10"
     guidetolerance="10"
     inkscape:pageopacity="0"
     inkscape:pageshadow="2"
     inkscape:window-width="1920"
     inkscape:window-height="1166"
     id="namedview6"
     showgrid="false"
     inkscape:zoom="4.9166018"
     inkscape:cx="89.085921"
     inkscape:cy="24.305405"
     inkscape:window-x="-11"
     inkscape:window-y="-11"
     inkscape:window-maximized="1"
     inkscape:current-layer="svg4"
     inkscape:showpageshadow="2"
     inkscape:pagecheckerboard="0"
     inkscape:deskcolor="#d1d1d1" />
  <path
     fill-rule="evenodd"
     clip-rule="evenodd"
     d="M 50,0 C 22.375,0 0,22.374997 0,49.999992 c 0,22.124997 14.3125,40.812494 34.1875,47.437493 2.5,0.4375 3.4375,-1.0625 3.4375,-2.375 0,-1.1875 -0.0625,-5.124999 -0.0625,-9.312498 C 25,88.062486 21.75,82.687487 20.75,79.874988 c -0.5625,-1.4375 -3,-5.875 -5.125,-7.062499 -1.75,-0.9375 -4.25,-3.25 -0.0625,-3.3125 3.9375,-0.0625 6.75,3.625 7.6875,5.124999 4.5,7.562499 11.6875,5.4375 14.5625,4.125 0.4375,-3.25 1.75,-5.437499 3.1875,-6.687499 -11.125,-1.25 -22.75,-5.562499 -22.75,-24.687496 0,-5.4375 1.9375,-9.937499 5.125,-13.437498 -0.5,-1.25 -2.25,-6.374999 0.5,-13.249998 0,0 4.1875,-1.3125 13.75,5.124999 4,-1.125 8.25,-1.6875 12.5,-1.6875 4.25,0 8.5,0.5625 12.5,1.6875 9.5625,-6.499999 13.75,-5.124999 13.75,-5.124999 2.75,6.874999 1,11.999998 0.5,13.249998 C 80.0625,37.437494 82,41.874993 82,47.374993 82,66.56249 70.3125,70.812489 59.1875,72.062489 c 1.8125,1.5625 3.375,4.562499 3.375,9.249998 0,6.687499 -0.0625,12.062498 -0.0625,13.749998 0,1.3125 0.9375,2.875 3.4375,2.375 C 85.6875,90.812486 100,72.062489 100,49.999992 100,22.374997 77.625,0 50,0 Z"
     fill="#1B1F23"
     id="path2"
     style="fill:#000000;fill-opacity:1;stroke-width:6.25" />
</svg>
