<?xml version="1.0" encoding="UTF-8" standalone="no"?>
<!-- Generator: Adobe Illustrator 26.0.3, SVG Export Plug-In . SVG Version: 6.00 Build 0)  -->

<svg
   version="1.0"
   id="katman_1"
   x="0px"
   y="0px"
   viewBox="0 0 100 100"
   xml:space="preserve"
   sodipodi:docname="Facebook Instagram Black Icon.svg"
   width="100"
   height="100"
   inkscape:version="1.3 (0e150ed6c4, 2023-07-21)"
   xmlns:inkscape="http://www.inkscape.org/namespaces/inkscape"
   xmlns:sodipodi="http://sodipodi.sourceforge.net/DTD/sodipodi-0.dtd"
   xmlns="http://www.w3.org/2000/svg"
   xmlns:svg="http://www.w3.org/2000/svg"><defs
   id="defs3" /><sodipodi:namedview
   id="namedview3"
   pagecolor="#ffffff"
   bordercolor="#000000"
   borderopacity="0.25"
   inkscape:showpageshadow="2"
   inkscape:pageopacity="0.0"
   inkscape:pagecheckerboard="0"
   inkscape:deskcolor="#d1d1d1"
   inkscape:zoom="5.5877149"
   inkscape:cx="46.351685"
   inkscape:cy="42.324994"
   inkscape:window-width="1920"
   inkscape:window-height="1166"
   inkscape:window-x="-11"
   inkscape:window-y="-11"
   inkscape:window-maximized="1"
   inkscape:current-layer="katman_1" />&#10;<style
   type="text/css"
   id="style1">&#10;	.st0{fill:#010202;}&#10;</style>&#10;<circle
   class="st0"
   cx="50.042118"
   cy="51.01096"
   id="circle1"
   style="stroke-width:0.42123"
   r="9.6461668" />&#10;<path
   class="st0"
   d="m 72.577928,33.99326 c -0.505476,-1.347936 -1.179444,-2.316765 -2.148273,-3.327717 -1.010952,-1.010952 -1.979781,-1.642797 -3.327717,-2.148273 -1.010952,-0.379107 -2.52738,-0.84246 -5.349621,-1.010952 -3.032856,-0.126369 -3.959562,-0.168492 -11.668071,-0.168492 -7.708509,0 -8.635215,0 -11.668071,0.168492 -2.822241,0.126369 -4.338669,0.589722 -5.349621,1.010952 -1.347936,0.505476 -2.316765,1.179444 -3.327717,2.148273 -1.010952,1.010952 -1.642797,1.979781 -2.148273,3.327717 -0.379107,1.010952 -0.84246,2.52738 -1.010952,5.349623 -0.126369,3.032858 -0.168492,3.959564 -0.168492,11.668069 0,7.708513 0,8.635215 0.168492,11.668071 0.126369,2.822241 0.589722,4.338669 1.010952,5.349621 0.505476,1.347936 1.179444,2.316765 2.148273,3.327717 1.010952,1.010952 1.979781,1.642797 3.327717,2.148273 1.010952,0.379107 2.52738,0.84246 5.349621,1.010952 3.032856,0.126369 3.959562,0.168492 11.668071,0.168492 7.708509,0 8.635215,0 11.668071,-0.168492 2.822241,-0.126369 4.338669,-0.589722 5.349621,-1.010952 1.347936,-0.505476 2.316765,-1.179444 3.327717,-2.148273 1.010952,-1.010952 1.642797,-1.979781 2.148273,-3.327717 0.379107,-1.010952 0.84246,-2.52738 1.010952,-5.349621 0.126369,-3.032856 0.168492,-3.959562 0.168492,-11.668071 0,-7.708505 0,-8.635215 -0.168492,-11.668069 C 73.462511,36.52064 72.957035,35.004212 72.577928,33.99326 Z M 50.042123,65.880375 c -8.213985,0 -14.827296,-6.655438 -14.827296,-14.8273 0,-8.171862 6.655434,-14.827296 14.827296,-14.827296 8.213985,0 14.827296,6.655434 14.827296,14.827296 0,8.171862 -6.655434,14.827296 -14.827296,14.8273 z M 65.459141,39.048022 c -1.937658,0 -3.454086,-1.558551 -3.454086,-3.454088 0,-1.937658 1.558551,-3.454086 3.454086,-3.454086 1.937658,0 3.454086,1.558551 3.454086,3.454086 0.04212,1.93766 -1.516428,3.454088 -3.454086,3.454088 z"
   id="path1"
   style="stroke-width:0.42123" />&#10;<path
   class="st0"
   d="M 50,0 C 22.367313,0 0,22.367313 0,50 0,77.632687 22.367313,100 50,100 77.632687,100 100,77.632687 100,50 100,22.367313 77.590564,0 50,0 Z m 28.770008,62.931765 c -0.126369,3.074979 -0.631845,5.181129 -1.347936,7.034537 -0.758214,1.895535 -1.727043,3.538336 -3.327716,5.139005 -1.600674,1.600674 -3.201348,2.611626 -5.139006,3.327717 -1.853412,0.716091 -3.959562,1.179449 -7.034541,1.347936 C 58.84583,79.907329 57.877001,79.949452 50,79.949452 c -7.877001,0 -8.84583,-0.04212 -11.920809,-0.168492 C 35.004212,79.654591 32.898062,79.149115 31.04465,78.433024 29.149115,77.67481 27.506318,76.705981 25.905644,75.105307 24.304971,73.504634 23.294019,71.90396 22.577928,69.966302 21.861837,68.11289 21.398484,66.00674 21.229992,62.931765 21.103623,59.856782 21.0615,58.887957 21.0615,51.010952 c 0,-7.877001 0.04212,-8.84583 0.168492,-11.920807 0.126369,-3.074981 0.631845,-5.181131 1.347936,-7.034543 0.758214,-1.895535 1.727043,-3.538332 3.327716,-5.139006 1.600674,-1.600674 3.201348,-2.611625 5.139006,-3.327716 1.853412,-0.716091 3.959562,-1.179444 7.034541,-1.347936 C 41.15417,22.114575 42.122999,22.072452 50,22.072452 c 7.877001,0 8.84583,0.04212 11.920809,0.168492 3.074979,0.126369 5.181129,0.631845 7.034541,1.347936 1.895535,0.758214 3.538332,1.727042 5.139006,3.327716 1.600673,1.600674 2.611625,3.201348 3.327716,5.139006 0.716091,1.853412 1.179444,3.959562 1.347936,7.034543 0.168492,3.074977 0.168492,4.043806 0.168492,11.920807 0,7.877001 -0.04212,8.84583 -0.168492,11.920813 z"
   id="path2"
   style="stroke-width:0.42123" />&#10;&#10;</svg>
