<?xml version="1.0" encoding="UTF-8" standalone="no"?>
<!-- Generator: Adobe Illustrator 16.0.0, SVG Export Plug-In . SVG Version: 6.00 Build 0)  -->

<svg
   version="1.1"
   id="Layer_1"
   x="0px"
   y="0px"
   width="100"
   height="100"
   viewBox="0 0 100 100"
   enable-background="new 0 0 512 512"
   xml:space="preserve"
   sodipodi:docname="link.svg"
   inkscape:version="1.3 (0e150ed6c4, 2023-07-21)"
   xmlns:inkscape="http://www.inkscape.org/namespaces/inkscape"
   xmlns:sodipodi="http://sodipodi.sourceforge.net/DTD/sodipodi-0.dtd"
   xmlns="http://www.w3.org/2000/svg"
   xmlns:svg="http://www.w3.org/2000/svg"><defs
   id="defs1" /><sodipodi:namedview
   id="namedview1"
   pagecolor="#ffffff"
   bordercolor="#000000"
   borderopacity="0.25"
   inkscape:showpageshadow="2"
   inkscape:pageopacity="0.0"
   inkscape:pagecheckerboard="0"
   inkscape:deskcolor="#d1d1d1"
   inkscape:zoom="2.4555388"
   inkscape:cx="40.72426"
   inkscape:cy="41.742367"
   inkscape:window-width="1920"
   inkscape:window-height="1166"
   inkscape:window-x="-11"
   inkscape:window-y="-11"
   inkscape:window-maximized="1"
   inkscape:current-layer="Layer_1" />&#10;<path
   fill="#010101"
   d="M 92.22897,45.308195 73.456755,64.07386 c -10.36141,10.367771 -27.170165,10.367771 -37.531575,0 -1.632934,-1.626496 -2.909423,-3.460347 -4.0306,-5.352465 l 8.722047,-8.721991 c 0.414713,-0.418029 0.926679,-0.657732 1.415833,-0.939528 0.602578,2.060699 1.655535,4.011084 3.275614,5.630944 5.174173,5.177457 13.594931,5.171029 18.765787,0 L 82.839647,35.925155 c 5.177493,-5.177457 5.177493,-13.594843 0,-18.768983 -5.171063,-5.174139 -13.588295,-5.174139 -18.765786,0 l -6.674399,6.680784 C 51.985583,21.727737 46.150357,21.160827 40.470648,21.993359 L 54.690761,7.7733397 c 10.367836,-10.3644529 27.170163,-10.3644529 37.537999,0 10.36162,10.3648683 10.36162,27.1704023 2.1e-4,37.5348553 z M 42.60269,76.165376 35.92518,82.84616 c -5.174172,5.17103 -13.594931,5.17103 -18.769104,0 -5.174173,-5.177457 -5.174173,-13.594843 0,-18.772093 L 35.92518,45.308402 c 5.177491,-5.177457 13.591615,-5.177457 18.765788,0 1.61676,1.61675 2.669719,3.567136 3.278932,5.624516 0.492472,-0.285114 0.998008,-0.518389 1.412721,-0.933099 l 8.722049,-8.718674 c -1.114544,-1.898546 -2.397667,-3.725969 -4.030602,-5.355575 -10.36141,-10.364453 -27.170163,-10.364453 -37.534891,0 L 7.77339,54.691235 c -10.36452,10.367771 -10.36452,27.169987 0,37.537755 10.364521,10.36135 27.170164,10.36135 37.534891,0 L 59.53171,78.005656 c -5.683026,0.835849 -11.518252,0.265622 -16.92902,-1.84028 z"
   id="path1"
   style="stroke-width:0.207356" />&#10;</svg>
