<?xml version="1.0" encoding="UTF-8" standalone="no"?>
<svg
   viewBox="0 0 99.999999 100"
   version="1.1"
   x="0px"
   y="0px"
   id="svg10"
   sodipodi:docname="noun-sun-4676033.svg"
   width="100"
   height="100"
   inkscape:version="1.3 (0e150ed6c4, 2023-07-21)"
   xmlns:inkscape="http://www.inkscape.org/namespaces/inkscape"
   xmlns:sodipodi="http://sodipodi.sourceforge.net/DTD/sodipodi-0.dtd"
   xmlns="http://www.w3.org/2000/svg"
   xmlns:svg="http://www.w3.org/2000/svg">
  <defs
     id="defs10" />
  <sodipodi:namedview
     id="namedview10"
     pagecolor="#ffffff"
     bordercolor="#000000"
     borderopacity="0.25"
     inkscape:showpageshadow="2"
     inkscape:pageopacity="0.0"
     inkscape:pagecheckerboard="0"
     inkscape:deskcolor="#d1d1d1"
     inkscape:zoom="5.001979"
     inkscape:cx="23.390742"
     inkscape:cy="63.075035"
     inkscape:window-width="1920"
     inkscape:window-height="1166"
     inkscape:window-x="-11"
     inkscape:window-y="-11"
     inkscape:window-maximized="1"
     inkscape:current-layer="svg10" />
  <g
     transform="matrix(6.8715553,0,0,6.8715582,-753.2271,-577.00955)"
     id="g9">
    <path
       style="color:#000000;paint-order:stroke fill markers"
       d="m 116.89063,88.009766 c -1.78278,0 -3.23633,1.453557 -3.23633,3.236328 0,1.782771 1.45355,3.238281 3.23633,3.238281 1.78277,0 3.23828,-1.45551 3.23828,-3.238281 0,-1.782771 -1.45551,-3.236328 -3.23828,-3.236328 z m 0,0.794921 c 1.35379,0 2.44335,1.087609 2.44335,2.441407 0,1.353797 -1.08956,2.443359 -2.44335,2.443359 -1.3538,0 -2.44141,-1.089562 -2.44141,-2.443359 0,-1.353798 1.08761,-2.441406 2.44141,-2.441407 z"
       fill="#000000"
       stroke-linecap="round"
       id="path1" />
    <path
       style="color:#000000"
       d="m 116.89063,83.970703 a 0.39687499,0.39687499 0 0 0 -0.39649,0.396484 v 2.525391 a 0.39687499,0.39687499 0 0 0 0.39649,0.396484 0.39687499,0.39687499 0 0 0 0.39843,-0.396484 v -2.525391 a 0.39687499,0.39687499 0 0 0 -0.39843,-0.396484 z"
       fill="#000000"
       stroke-linecap="round"
       id="path2" />
    <path
       style="color:#000000"
       d="m 121.75586,85.986328 a 0.39687499,0.39687499 0 0 0 -0.28125,0.115234 l -1.78516,1.785157 a 0.39687499,0.39687499 0 0 0 0,0.5625 0.39687499,0.39687499 0 0 0 0.5625,0 l 1.78516,-1.785157 a 0.39687499,0.39687499 0 0 0 0,-0.5625 0.39687499,0.39687499 0 0 0 -0.28125,-0.115234 z"
       fill="#000000"
       stroke-linecap="round"
       id="path3" />
    <path
       style="color:#000000"
       d="m 121.24609,90.849609 a 0.39687499,0.39687499 0 0 0 -0.39648,0.396485 0.39687499,0.39687499 0 0 0 0.39648,0.398437 h 2.52344 a 0.39687499,0.39687499 0 0 0 0.39844,-0.398437 0.39687499,0.39687499 0 0 0 -0.39844,-0.396485 z"
       fill="#000000"
       stroke-linecap="round"
       id="path4" />
    <path
       style="color:#000000"
       d="m 119.9707,93.929687 a 0.39687499,0.39687499 0 0 0 -0.28125,0.115235 0.39687499,0.39687499 0 0 0 0,0.5625 l 1.78516,1.785156 a 0.39687499,0.39687499 0 0 0 0.5625,0 0.39687499,0.39687499 0 0 0 0,-0.5625 l -1.78516,-1.785156 a 0.39687499,0.39687499 0 0 0 -0.28125,-0.115235 z"
       fill="#000000"
       stroke-linecap="round"
       id="path5" />
    <path
       style="color:#000000"
       d="m 116.89063,95.205078 a 0.39687499,0.39687499 0 0 0 -0.39649,0.396484 V 98.125 a 0.39687499,0.39687499 0 0 0 0.39649,0.398437 0.39687499,0.39687499 0 0 0 0.39843,-0.398437 v -2.523438 a 0.39687499,0.39687499 0 0 0 -0.39843,-0.396484 z"
       fill="#000000"
       stroke-linecap="round"
       id="path6" />
    <path
       style="color:#000000"
       d="m 113.53125,94.044922 -1.78516,1.785156 a 0.39687499,0.39687499 0 0 0 0,0.5625 0.39687499,0.39687499 0 0 0 0.5625,0 l 1.78516,-1.785156 a 0.39687499,0.39687499 0 0 0 0,-0.5625 0.39687499,0.39687499 0 0 0 -0.5625,0 z"
       fill="#000000"
       stroke-linecap="round"
       id="path7" />
    <path
       style="color:#000000"
       d="m 110.01367,90.849609 a 0.39687499,0.39687499 0 0 0 -0.39844,0.396485 0.39687499,0.39687499 0 0 0 0.39844,0.398437 h 2.52344 a 0.39687499,0.39687499 0 0 0 0.39648,-0.398437 0.39687499,0.39687499 0 0 0 -0.39648,-0.396485 z"
       fill="#000000"
       stroke-linecap="round"
       id="path8" />
    <path
       style="color:#000000"
       d="m 111.74609,86.101562 a 0.39687499,0.39687499 0 0 0 0,0.5625 l 1.78516,1.785157 a 0.39687499,0.39687499 0 0 0 0.5625,0 0.39687499,0.39687499 0 0 0 0,-0.5625 l -1.78516,-1.785157 a 0.39687499,0.39687499 0 0 0 -0.5625,0 z"
       fill="#000000"
       stroke-linecap="round"
       id="path9" />
  </g>
</svg>
